<?xml version="1.0" standalone="no"?>
<!DOCTYPE svg PUBLIC "-//W3C//DTD SVG 20010904//EN"
 "http://www.w3.org/TR/2001/REC-SVG-20010904/DTD/svg10.dtd">
<svg version="1.0" xmlns="http://www.w3.org/2000/svg"
 width="1024.000000pt" height="1024.000000pt" viewBox="0 0 1024.000000 1024.000000"
 preserveAspectRatio="xMidYMid meet">

<g transform="translate(0.000000,1024.000000) scale(0.100000,-0.100000)"
fill="#000000" stroke="none">
<path d="M4810 8556 c-30 -7 -68 -19 -85 -27 -74 -33 -313 -174 -450 -266 -82
-54 -197 -130 -255 -168 -58 -38 -269 -177 -470 -310 -492 -325 -582 -384
-740 -480 -129 -78 -224 -139 -300 -192 -19 -14 -100 -68 -179 -120 -122 -81
-146 -100 -160 -134 l-16 -39 -95 6 c-115 7 -209 -10 -313 -58 -215 -98 -355
-230 -437 -412 -80 -179 -92 -425 -28 -620 42 -128 269 -568 453 -876 50 -85
118 -204 150 -265 l58 -110 5 -127 5 -128 -54 0 c-68 0 -362 -29 -411 -42 -21
-5 -38 -15 -38 -22 0 -8 17 -22 38 -32 30 -15 69 -19 215 -22 97 -2 177 -8
177 -12 0 -4 -26 -25 -57 -46 -92 -60 -158 -119 -227 -206 -118 -148 -182
-313 -208 -542 -12 -110 0 -284 28 -391 20 -78 111 -267 171 -358 164 -247
501 -442 826 -479 88 -10 678 -13 2747 -13 2529 0 2638 1 2720 19 47 10 90 22
95 26 6 4 25 11 44 15 56 12 222 89 316 146 78 48 178 132 241 203 31 36 62
63 68 59 6 -3 8 -3 4 1 -3 4 18 56 48 114 101 199 150 403 141 592 -10 205
-59 380 -150 533 -67 112 -126 180 -213 244 -58 42 -78 73 -43 65 7 -2 49 -6
93 -9 99 -7 192 10 201 36 7 25 -11 72 -36 92 -18 13 -21 32 -29 165 -9 161
-20 206 -77 313 -41 78 -82 132 -139 184 -39 36 -42 42 -53 123 -20 146 -69
255 -156 351 -75 84 -153 125 -322 169 -10 3 -13 108 -13 483 0 427 2 480 16
485 9 3 50 6 92 6 98 1 313 17 336 26 21 8 86 138 86 171 0 29 -50 102 -98
144 -62 53 -306 209 -594 378 -149 88 -201 122 -408 270 l-125 89 0 221 0 221
44 13 c26 7 52 23 64 39 19 25 19 34 10 197 -10 170 -10 172 -39 202 -57 61
-60 61 -414 71 -400 12 -725 6 -766 -13 -44 -21 -53 -63 -53 -241 -1 -87 -5
-158 -9 -158 -4 0 -12 4 -17 9 -6 5 -37 23 -70 41 -33 18 -86 54 -118 79 -90
70 -177 130 -232 158 -27 14 -78 45 -113 70 -101 72 -129 80 -287 87 -77 3
-185 8 -240 11 -63 2 -120 -1 -155 -9z m191 -198 c55 -43 60 -58 17 -58 -18 0
-52 -5 -75 -10 -57 -13 -267 -114 -312 -149 -20 -16 -67 -46 -106 -67 -38 -21
-96 -55 -127 -76 -31 -21 -60 -38 -63 -38 -4 0 -32 -20 -63 -44 -32 -24 -79
-56 -107 -71 -27 -15 -59 -35 -70 -45 -25 -22 -180 -125 -248 -166 -29 -17
-107 -69 -175 -117 -68 -48 -144 -99 -170 -114 -26 -15 -63 -39 -83 -55 -20
-15 -40 -28 -43 -28 -12 0 -264 -156 -322 -199 -33 -25 -104 -71 -158 -101
-53 -30 -129 -78 -168 -107 -39 -29 -87 -58 -107 -64 -20 -6 -59 -28 -87 -49
-48 -36 -107 -60 -146 -60 -40 0 -17 40 59 105 68 58 125 97 371 251 34 21
122 77 195 124 72 47 161 103 197 125 82 48 212 133 615 400 594 394 819 536
965 610 90 46 153 47 211 3z m315 13 c-3 -5 -15 -7 -26 -4 -28 7 -25 13 6 13
14 0 23 -4 20 -9z m1359 -101 l0 -95 -215 0 -215 0 0 90 0 90 160 6 c88 3 185
5 215 5 l55 -1 0 -95z m-15 -528 c3 -144 4 -266 2 -272 -2 -5 -24 7 -50 26
-26 19 -92 68 -147 108 -55 41 -114 87 -132 103 l-31 28 -5 128 c-4 123 -3
129 17 137 12 5 93 8 181 7 l160 -2 5 -263z m-2100 208 c0 -5 -9 -10 -20 -10
-11 0 -20 5 -20 10 0 6 9 10 20 10 11 0 20 -4 20 -10z m412 -84 c29 -18 77
-45 107 -60 49 -25 110 -65 186 -122 32 -23 183 -114 191 -114 3 0 17 -9 32
-19 68 -48 272 -180 317 -206 42 -24 256 -170 610 -418 44 -30 132 -86 195
-123 63 -37 170 -104 238 -148 l123 -81 4 -655 c3 -360 2 -887 -2 -1170 l-8
-515 -167 -3 c-131 -2 -168 0 -169 10 0 7 0 542 1 1188 l1 1175 -1693 -3
c-1147 -1 -1696 -6 -1703 -13 -6 -6 -11 -180 -13 -499 l-3 -490 -99 0 c-54 0
-133 -5 -176 -11 -56 -8 -80 -7 -88 1 -8 8 -11 152 -13 493 -1 265 1 490 4
500 2 9 21 26 42 37 21 10 106 63 189 117 83 54 206 133 274 176 68 42 263
170 433 282 171 113 342 224 380 247 39 23 133 83 210 133 77 50 172 109 210
130 85 47 229 140 268 172 38 31 57 29 119 -11z m-552 -21 c0 -2 -9 -9 -20
-15 -16 -9 -20 -8 -20 5 0 8 9 15 20 15 11 0 20 -2 20 -5z m-98 -45 c31 0 5
-26 -40 -41 -20 -7 -39 -15 -42 -19 -9 -14 -142 -101 -147 -97 -2 3 1 23 6 45
12 42 38 62 53 40 8 -10 11 -10 15 0 2 6 19 12 36 13 18 0 26 3 20 6 -7 2 -13
11 -13 19 0 8 6 15 13 16 6 0 17 2 22 3 6 2 18 3 28 4 9 0 17 9 18 19 0 10 3
12 6 5 2 -7 14 -13 25 -13z m-257 -180 c-3 -5 -10 -10 -16 -10 -5 0 -9 5 -9
10 0 6 7 10 16 10 8 0 12 -4 9 -10z m-175 -80 c0 -5 -4 -10 -9 -10 -5 0 -8 -6
-7 -13 2 -25 -92 -87 -146 -97 -28 -6 -52 -10 -54 -10 -1 0 12 15 29 33 18 19
37 42 42 52 7 11 24 19 46 19 19 1 45 9 59 19 28 19 40 22 40 7z m-323 -226
c-3 -3 -12 -4 -19 -1 -8 3 -5 6 6 6 11 1 17 -2 13 -5z m-28 -13 c19 -12 10
-23 -43 -49 -25 -13 -48 -27 -51 -33 -4 -5 -17 -9 -31 -9 -15 0 -23 4 -19 10
4 6 11 8 16 4 6 -3 13 3 16 15 5 19 37 47 73 63 20 9 23 9 39 -1z m-334 -256
c-45 -36 -164 -97 -180 -92 -7 3 -21 -1 -32 -8 -20 -16 -53 -20 -53 -7 0 4 18
25 41 45 31 29 44 35 54 27 13 -11 21 -8 140 46 48 22 63 17 30 -11z m3903
-235 c-2 -55 -6 -100 -10 -100 -5 0 -8 7 -8 15 0 8 -5 15 -12 15 -9 0 -9 3 0
12 7 7 12 42 12 85 0 45 4 73 11 73 7 0 9 -33 7 -100z m-4248 20 c-24 -19 -40
-25 -40 -15 0 5 51 34 60 34 3 0 -6 -8 -20 -19z m-745 -210 c72 -19 125 -42
119 -51 -3 -5 -29 -9 -59 -9 -79 0 -206 -20 -229 -35 -18 -13 -16 -14 20 -9
34 5 36 4 19 -7 -50 -31 -45 -53 10 -45 74 12 51 -9 -27 -23 -40 -7 -95 -24
-123 -38 -52 -25 -155 -111 -155 -130 0 -5 -9 -18 -20 -28 -11 -10 -20 -22
-20 -27 0 -5 -9 -29 -20 -54 -11 -24 -25 -77 -29 -117 l-9 -72 3 90 c3 100 11
142 32 166 7 9 11 23 8 32 -4 8 -2 18 4 22 6 3 11 13 11 22 0 27 -48 -24 -77
-81 -30 -59 -41 -151 -31 -257 8 -86 48 -189 72 -189 9 0 16 -7 16 -16 0 -8 5
-12 11 -8 14 8 29 -14 29 -44 0 -13 13 -34 30 -49 17 -14 29 -30 28 -37 -1 -6
19 -32 44 -58 31 -31 49 -59 53 -82 4 -19 13 -37 20 -40 7 -2 11 -14 8 -29 -3
-16 10 -55 37 -112 77 -160 133 -345 129 -428 -2 -29 1 -68 5 -87 l7 -35 -20
25 c-21 25 -151 246 -288 490 -133 236 -252 475 -273 550 -45 162 -34 344 30
476 60 124 200 244 355 306 57 22 86 27 155 28 47 0 103 -5 125 -10z m39 -409
c80 -39 118 -89 124 -165 9 -112 -65 -233 -164 -269 -64 -23 -85 -22 -142 7
-99 50 -172 155 -172 246 0 52 35 134 71 167 68 63 174 68 283 14z m3209 -14
c86 -22 89 -29 35 -85 -57 -58 -240 -333 -282 -424 l-32 -67 -479 -5 c-501 -6
-685 -1 -685 18 0 6 21 38 46 71 25 33 81 112 124 176 142 211 214 280 330
319 67 23 853 20 943 -3z m747 -157 c0 -18 -19 -11 -30 11 -11 19 -10 20 9 9
12 -6 21 -15 21 -20z m-117 -119 c74 -25 148 -82 191 -144 39 -56 81 -155 71
-166 -4 -3 -90 -8 -191 -9 l-184 -4 0 34 c0 67 -98 176 -187 210 -18 7 -33 16
-33 20 0 13 77 60 112 68 62 15 166 11 221 -9z m-4249 -207 c9 -24 7 -28 -9
-14 -17 14 -20 30 -6 30 5 0 12 -7 15 -16z m3877 -24 c48 -13 79 -49 86 -98 4
-33 1 -44 -23 -71 -32 -35 -108 -61 -181 -61 -55 0 -83 33 -83 97 0 114 80
167 201 133z m-2911 -209 c0 -4 -21 -34 -46 -67 -125 -159 -148 -348 -60 -495
39 -66 43 -79 23 -79 -24 0 -92 -67 -120 -119 -39 -71 -40 -166 -4 -242 32
-68 51 -90 105 -123 39 -24 42 -29 42 -70 0 -31 -5 -46 -16 -50 -9 -3 -118 -6
-244 -6 l-228 0 -7 76 c-14 145 -5 187 70 336 38 73 101 193 142 266 40 73 73
135 73 137 0 11 169 346 190 376 36 52 62 79 71 73 5 -3 9 -9 9 -13z m1276
-41 c24 -9 25 -13 13 -24 -34 -33 -119 -67 -190 -76 -40 -5 -206 -10 -367 -10
l-293 0 -49 39 c-27 22 -55 41 -62 44 -29 10 8 22 85 28 152 11 834 10 863 -1z
m1101 -4 c161 -2 218 -9 162 -20 -13 -2 -51 -9 -84 -16 -33 -6 -73 -16 -90
-21 -64 -23 -107 -28 -290 -34 -192 -7 -269 -22 -331 -62 -20 -12 -24 -10 -60
34 -21 27 -52 60 -68 74 l-28 27 33 7 c76 17 204 23 389 18 107 -3 272 -6 367
-7z m1133 -31 c7 -8 20 -15 29 -15 17 0 51 -33 51 -50 0 -13 -17 -13 -25 0
-12 19 -127 12 -163 -10 -40 -24 -42 -25 -40 -2 3 44 -3 64 -22 69 -46 12 -14
23 69 23 66 0 92 -4 101 -15z m-3267 -135 c112 -71 116 -252 8 -329 -52 -38
-80 -37 -143 5 -77 51 -91 80 -87 176 4 68 8 81 35 115 30 37 77 61 120 62 11
1 41 -13 67 -29z m870 8 c-5 -7 -16 -33 -23 -58 -23 -78 -8 -74 -265 -66 -126
4 -234 11 -239 16 -7 7 -4 10 7 10 10 0 17 8 17 20 0 15 7 20 25 20 18 0 25
-5 25 -20 0 -15 7 -20 29 -20 16 0 31 4 33 10 2 6 66 12 148 15 80 3 158 6
173 6 21 1 27 6 25 20 -2 9 8 29 21 43 24 26 43 28 24 4z m373 -13 c46 -27 87
-86 99 -143 13 -63 -3 -108 -59 -167 -45 -48 -57 -55 -89 -55 -77 0 -179 83
-193 155 -9 50 1 113 23 144 30 40 111 91 146 91 17 0 50 -11 73 -25z m3840
-21 c47 -28 100 -87 129 -143 25 -49 55 -204 55 -286 0 -85 15 -112 68 -120
129 -21 182 -118 182 -336 l0 -107 -32 -6 c-18 -3 -147 -9 -287 -12 l-254 -7
6 378 c4 208 7 443 7 522 l0 143 41 0 c26 0 57 -10 85 -26z m-4343 -254 l107
0 0 -27 c0 -14 7 -35 16 -45 14 -14 14 -20 4 -33 -11 -13 -58 -15 -331 -15
l-319 0 0 23 c0 34 18 89 32 100 7 4 95 6 198 3 102 -3 233 -6 293 -6z m1407
-96 c144 -72 219 -217 191 -369 -24 -127 -85 -215 -183 -265 -121 -60 -259
-34 -347 67 -71 80 -86 123 -84 241 1 92 5 110 33 170 51 109 121 169 213 181
71 10 124 2 177 -25z m1340 -156 c-22 -142 -23 -201 -6 -282 9 -43 16 -100 16
-127 0 -49 0 -49 -27 -43 -64 16 -123 82 -123 136 0 18 -5 60 -10 93 -19 111
21 225 108 313 l47 47 3 -32 c2 -18 -2 -65 -8 -105z m-2055 -56 c93 -25 118
-132 46 -197 -22 -19 -40 -19 -819 -16 -439 1 -822 6 -852 9 -50 7 -56 10 -77
47 -22 39 -30 100 -15 120 27 38 42 40 291 46 405 9 1381 3 1426 -9z m-1399
-373 c13 -11 39 -68 33 -73 -2 -2 -39 -6 -82 -7 -60 -3 -80 0 -87 11 -16 24
-11 68 8 80 19 12 110 4 128 -11z m725 11 c17 0 9 -37 -13 -58 -34 -31 -72
-42 -142 -42 -56 0 -68 4 -116 38 -29 20 -55 43 -57 49 -3 9 32 13 144 15 81
2 154 2 161 1 8 -2 18 -3 23 -3z m3614 -284 c642 -6 675 -8 817 -64 129 -50
273 -171 353 -297 100 -157 139 -427 94 -648 -46 -224 -176 -416 -368 -546
-130 -89 -300 -159 -432 -180 -86 -14 -5158 -16 -5304 -2 -249 23 -377 71
-540 202 -138 111 -253 292 -297 465 -20 77 -23 115 -22 274 0 183 0 186 32
275 85 235 209 358 462 458 152 60 162 60 935 66 782 7 3342 4 4270 -3z"/>
<path d="M4684 7654 c-104 -54 -180 -162 -191 -269 -8 -73 19 -186 69 -286 22
-46 53 -115 67 -154 l26 -70 110 -62 c114 -66 146 -74 194 -48 44 22 120 112
131 156 8 29 31 56 96 116 47 43 96 96 109 118 28 48 49 159 42 222 -7 66 -62
165 -123 223 -80 76 -95 80 -302 80 -173 0 -181 -1 -228 -26z m146 -152 c0
-10 -16 -33 -35 -52 -61 -59 -66 -130 -14 -175 35 -29 82 -39 151 -33 45 5 57
11 90 46 45 48 51 98 18 147 -11 17 -20 37 -20 45 0 8 18 -12 40 -45 30 -46
40 -70 40 -101 0 -53 -43 -114 -96 -138 -63 -28 -69 -32 -72 -55 -3 -18 1 -21
29 -19 19 2 34 -2 37 -10 3 -11 -12 -12 -79 -7 -46 4 -88 11 -93 16 -6 5 -18
9 -28 9 -32 0 -96 50 -128 99 -38 61 -40 113 -5 182 39 76 165 146 165 91z"/>
<path d="M1818 6473 c-10 -2 -18 -9 -18 -14 0 -5 -6 -9 -13 -9 -7 0 -33 -21
-57 -46 -52 -53 -24 -49 30 4 19 19 49 43 65 53 29 19 28 21 -7 12z"/>
<path d="M1760 6389 c0 -5 5 -7 10 -4 6 3 10 8 10 11 0 2 -4 4 -10 4 -5 0 -10
-5 -10 -11z"/>
<path d="M4923 4764 c-69 -30 -133 -129 -133 -206 0 -30 29 -91 58 -121 46
-49 81 -61 169 -58 69 2 153 118 153 211 0 50 -27 116 -56 142 -51 45 -131 59
-191 32z"/>
<path d="M3135 3766 c-16 -7 -39 -23 -49 -35 -18 -20 -19 -40 -17 -398 1 -356
6 -518 17 -571 6 -31 80 -82 118 -82 33 0 77 24 101 56 12 16 14 95 15 500 l0
482 -29 31 c-25 27 -36 31 -78 31 -26 -1 -61 -7 -78 -14z"/>
<path d="M4726 3770 c-67 -17 -163 -69 -195 -105 -51 -58 -74 -113 -79 -190
-6 -91 9 -140 63 -213 65 -89 145 -130 324 -166 102 -21 139 -38 147 -70 9
-35 -2 -59 -35 -79 -58 -34 -168 -14 -279 52 -29 17 -56 31 -59 31 -4 0 -15 8
-25 17 -18 16 -22 14 -84 -53 -92 -99 -92 -98 -47 -140 143 -133 357 -200 513
-160 95 25 146 54 206 119 108 117 120 273 30 392 -42 55 -174 113 -324 144
-156 32 -203 93 -125 161 34 30 40 32 102 28 50 -3 85 -12 145 -41 l80 -38 78
82 c75 79 77 83 61 101 -24 27 -119 83 -183 108 -63 25 -247 36 -314 20z"/>
<path d="M6715 3770 c-171 -19 -313 -107 -407 -251 -110 -167 -109 -386 2
-556 59 -90 177 -195 267 -240 70 -35 84 -38 179 -41 119 -5 190 14 293 76
180 109 276 258 288 452 9 146 -35 267 -135 372 -75 79 -156 131 -249 161 -91
30 -155 37 -238 27z m111 -487 c10 -15 18 -46 18 -67 1 -36 -2 -40 -32 -48
-19 -5 -54 -8 -80 -6 -39 3 -47 7 -54 30 -8 23 -5 32 20 56 16 16 37 32 46 35
9 4 16 11 16 17 0 22 48 9 66 -17z m-169 -45 c-3 -7 -5 -2 -5 12 0 14 2 19 5
13 2 -7 2 -19 0 -25z"/>
<path d="M2123 3758 c-18 -5 -37 -16 -41 -26 -5 -9 -13 -232 -17 -495 l-7
-479 42 -39 c52 -49 89 -52 148 -9 48 34 51 44 55 165 l2 90 140 6 c143 6 189
16 260 51 76 39 113 77 152 156 32 64 39 88 42 154 10 230 -147 415 -363 424
-193 9 -384 10 -413 2z m447 -264 c107 -62 107 -212 0 -267 -28 -14 -56 -17
-145 -15 l-110 3 -3 140 c-1 76 0 145 3 153 9 24 210 13 255 -14z"/>
<path d="M3533 3760 c-31 -12 -52 -49 -59 -101 -13 -97 25 -126 175 -135 l101
-7 0 -371 c0 -277 3 -377 13 -396 18 -36 74 -70 115 -70 43 0 100 34 113 67 5
13 9 193 9 399 l0 374 103 0 c182 1 217 20 217 120 0 69 -23 105 -78 119 -47
12 -680 13 -709 1z"/>
<path d="M5404 3760 c-35 -14 -54 -54 -54 -118 0 -97 31 -112 265 -124 l50 -3
-4 -366 c-4 -407 -4 -407 62 -448 59 -36 118 -26 153 26 18 26 19 57 24 413
l5 385 126 1 c167 2 191 16 191 114 -1 59 -24 108 -55 115 -37 9 -741 13 -763
5z"/>
<path d="M7563 3763 c-17 -2 -43 -16 -57 -30 l-26 -26 0 -467 0 -467 23 -34
c47 -70 129 -85 192 -35 30 24 30 25 33 143 3 75 8 121 15 125 7 4 46 8 87 8
227 1 352 65 427 218 26 52 28 66 28 167 0 101 -3 115 -29 168 -51 103 -172
193 -291 216 -54 10 -349 21 -402 14z m368 -254 c71 -24 119 -100 103 -166
-19 -82 -97 -133 -203 -133 -107 0 -101 -9 -101 154 0 79 3 146 7 149 11 11
158 8 194 -4z"/>
</g>
</svg>
